<?xml version="1.0" encoding="utf-8"?>
<!-- Generator: Adobe Illustrator 16.0.0, SVG Export Plug-In . SVG Version: 6.00 Build 0)  -->
<!DOCTYPE svg PUBLIC "-//W3C//DTD SVG 1.1//EN" "http://www.w3.org/Graphics/SVG/1.1/DTD/svg11.dtd">
<svg version="1.1" id="Layer_1" xmlns="http://www.w3.org/2000/svg" xmlns:xlink="http://www.w3.org/1999/xlink" x="0px" y="0px"
	 width="1902px" height="512px" viewBox="0 0 1902 512" enable-background="new 0 0 1902 512" xml:space="preserve">
<circle fill="none" stroke="#0D4578" stroke-width="12" stroke-miterlimit="10" cx="449" cy="257.5" r="215"/>
<g>
	<g>
		<path fill="#0B477B" d="M454.136,237.378c3.405,4.011,6.811,8.22,10.22,12.626c3.405,4.41,5.711,8.82,6.914,13.225
			c0.399,2.006,0.399,4.109,0,6.313c-0.404,2.209-1.503,4.109-3.306,5.711c-3.006,2.006-6.214,3.006-9.619,3.006
			c-3.809,0-7.468-0.9-10.972-2.705c-3.508-1.803-6.364-3.605-8.567-5.41c-3.41-3.006-6.515-6.059-9.318-9.168
			c-2.809-3.105-5.613-6.162-8.417-9.168c-2.207-2.404-4.612-4.811-7.214-7.215c-2.607-2.404-4.913-5.006-6.914-7.814
			l-29.759,32.764c-3.208,3.41-6.613,5.764-10.22,7.064c-3.607,1.307-7.017,1.953-10.22,1.953c-1.005,0-2.508-0.197-4.509-0.6
			c-3.809-1.002-6.416-2.805-7.815-5.412c-1.202-2.203-1.606-4.705-1.202-7.514c0.399-2.805,1.202-5.309,2.405-7.516
			c1.399-2.404,2.954-4.607,4.659-6.613c1.7-2,3.457-4.105,5.26-6.313c5.209-5.811,10.267-11.873,15.18-18.186
			c4.908-6.313,10.267-12.475,16.082-18.486v-16.533c-1.606,0.202-3.607,0.254-6.012,0.15c-2.405-0.098-5.312-0.15-8.717-0.15
			c-2.208,0-4.711,0.104-7.515,0.301c-2.809,0.202-5.561,0.104-8.267-0.301c-2.705-0.398-5.162-1.249-7.364-2.555
			c-2.208-1.301-3.908-3.457-5.11-6.463c-1.005-2.203-1.606-4.706-1.804-7.515c-0.202-2.804,0-5.411,0.602-7.815
			c0.601-2.805,2.151-4.758,4.659-5.861c2.503-1.1,4.856-1.851,7.064-2.255c2-0.399,3.804-0.601,5.411-0.601
			c0.601,0,1.202,0.051,1.803,0.15c0.602,0.103,1.203,0.15,1.804,0.15h24.348c0.399-4.608,1.353-8.967,2.855-13.076
			c1.503-4.105,4.458-6.961,8.868-8.567c3.405-1.202,6.562-1.503,9.469-0.901c2.903,0.602,5.458,1.803,7.665,3.607
			c2.203,1.803,4.006,4.109,5.411,6.913c1.4,2.809,2.302,5.712,2.706,8.718c0.197,0.601,0.348,1.154,0.451,1.652
			c0.099,0.503,0.15,1.053,0.15,1.654h17.134c7.012,0,12.625,0.45,16.833,1.352c4.208,0.902,7.712,3.359,10.521,7.365
			c0.799,1.202,1.4,2.855,1.804,4.959c0.399,2.105,0.451,4.209,0.15,6.313c-0.301,2.104-0.855,4.059-1.653,5.862
			c-0.803,1.804-1.804,3.108-3.006,3.907c-1.606,0.602-3.358,1.254-5.261,1.954c-1.907,0.704-3.659,1.052-5.26,1.052
			c-2.405,0.202-4.561,0.254-6.463,0.15c-1.907-0.098-4.058-0.15-6.462-0.15c-3.607,0-6.416,0.053-8.417,0.15
			c-2.005,0.104-4.41,0.052-7.214-0.15c0,2.607,0,4.26,0,4.961c0,0.703,0,1.352,0,1.953s0,1.503,0,2.705c0,1.203,0,3.509,0,6.914
			c1,0.803,2.301,2.404,3.908,4.81c1.602,2.405,3.203,4.41,4.81,6.012c1.602,1.606,3.306,3.358,5.11,5.261
			c1.804,1.906,3.706,3.959,5.711,6.162c1.399,1.404,2.602,2.705,3.607,3.907C452.131,235.273,453.131,236.377,454.136,237.378z
			 M398.526,383.467c-8.219,0-14.833-1.756-19.839-5.26c-5.012-3.51-7.515-7.566-7.515-12.176v-43.285
			c-0.404-4.404-0.404-8.914,0-13.525c0.399-4.209,2.053-7.613,4.96-10.221c2.902-2.602,6.66-3.908,11.272-3.908
			c1,0,2.804,0.053,5.411,0.15c2.602,0.104,4.405,0.352,5.411,0.752c2.602,0.803,4.659,2.006,6.162,3.607
			c1.503,1.605,2.654,3.457,3.457,5.561c0.799,2.104,1.301,4.311,1.503,6.613c0.197,2.307,0.399,4.561,0.602,6.764
			c0,0.803,0.047,2.658,0.15,5.561c0.098,2.906,0.197,6.012,0.3,9.318c0.099,3.307,0.197,6.363,0.301,9.168
			c0.099,2.809,0.249,4.51,0.451,5.109c0.601,0.203,2.254,0.451,4.96,0.752c2.705,0.301,7.764,0.451,15.18,0.451
			c6.411,0,10.371-0.1,11.874-0.301c1.503-0.197,2.353-0.301,2.555-0.301h98.294c2.603,0.803,4.706,1.654,6.313,2.555
			c1.602,0.902,3.104,2.105,4.509,3.607c1.4,1.504,2.302,3.256,2.706,5.26c1,7.615-0.301,13.527-3.908,17.736
			c-2.404,2.803-5.012,4.508-7.815,5.109c-2.809,0.602-4.312,0.902-4.509,0.902H398.526z M551.229,235.875v27.354
			c-0.202,2.209-0.503,4.463-0.902,6.764c-0.403,2.307-1.202,4.561-2.404,6.764c-1.404,2.607-3.109,4.51-5.11,5.711
			c-3.208,2.207-6.515,3.307-9.92,3.307c-3.006,0-5.814-0.799-8.416-2.404c-2.006-1.203-3.607-2.705-4.81-4.51
			c-1.202-1.803-2.156-3.504-2.855-5.109c-0.705-1.602-1.254-3.705-1.653-6.313v-99.196c0-1,0.15-3.255,0.45-6.763
			c0.301-3.504,1.053-6.463,2.255-8.868c2.001-4.208,6.11-6.612,12.324-7.214c3.405-0.399,6.562-0.197,9.469,0.602
			c2.902,0.803,5.157,2.104,6.764,3.907c1.202,1.606,2.052,3.156,2.555,4.659c0.498,1.503,0.949,3.058,1.353,4.659
			c0.602,2.005,0.949,4.11,1.053,6.313c0.099,2.208,0.047,4.41-0.15,6.612v30.061c0.798,0,2.301,0.104,4.509,0.301
			c2.202,0.201,4.556,0.352,7.063,0.45c2.504,0.104,4.856,0.253,7.064,0.45c2.202,0.203,3.705,0.404,4.509,0.602
			c4.006,0.804,6.811,1.954,8.417,3.457c1.602,1.503,2.705,3.358,3.306,5.561c0.399,2.208,0.602,4.764,0.602,7.666
			c0,2.907-0.602,5.363-1.804,7.364c-2.404,4.011-6.012,6.313-10.821,6.913c-4.81,0.602-10.121,0.902-15.932,0.902H551.229z"/>
	</g>
</g>
<g>
	<g>
		<path fill="#0B477B" d="M917.136,237.378c3.405,4.011,6.811,8.22,10.22,12.626c3.405,4.41,5.711,8.82,6.914,13.225
			c0.399,2.006,0.399,4.109,0,6.313c-0.404,2.209-1.503,4.109-3.306,5.711c-3.006,2.006-6.214,3.006-9.619,3.006
			c-3.809,0-7.468-0.9-10.972-2.705c-3.508-1.803-6.364-3.605-8.567-5.41c-3.41-3.006-6.515-6.059-9.318-9.168
			c-2.809-3.105-5.613-6.162-8.417-9.168c-2.207-2.404-4.612-4.811-7.214-7.215c-2.607-2.404-4.913-5.006-6.914-7.814
			l-29.759,32.764c-3.208,3.41-6.613,5.764-10.22,7.064c-3.607,1.307-7.017,1.953-10.22,1.953c-1.005,0-2.508-0.197-4.509-0.6
			c-3.809-1.002-6.416-2.805-7.815-5.412c-1.202-2.203-1.606-4.705-1.202-7.514c0.399-2.805,1.202-5.309,2.405-7.516
			c1.399-2.404,2.954-4.607,4.659-6.613c1.7-2,3.457-4.105,5.26-6.313c5.209-5.811,10.267-11.873,15.18-18.186
			c4.908-6.313,10.267-12.475,16.082-18.486v-16.533c-1.606,0.202-3.607,0.254-6.012,0.15c-2.405-0.098-5.312-0.15-8.717-0.15
			c-2.208,0-4.711,0.104-7.515,0.301c-2.809,0.202-5.561,0.104-8.267-0.301c-2.705-0.398-5.162-1.249-7.364-2.555
			c-2.208-1.301-3.908-3.457-5.11-6.463c-1.005-2.203-1.606-4.706-1.804-7.515c-0.202-2.804,0-5.411,0.602-7.815
			c0.601-2.805,2.151-4.758,4.659-5.861c2.503-1.1,4.856-1.851,7.064-2.255c2-0.399,3.804-0.601,5.411-0.601
			c0.601,0,1.202,0.051,1.803,0.15c0.602,0.103,1.203,0.15,1.804,0.15h24.348c0.399-4.608,1.353-8.967,2.855-13.076
			c1.503-4.105,4.458-6.961,8.868-8.567c3.405-1.202,6.562-1.503,9.469-0.901c2.903,0.602,5.458,1.803,7.665,3.607
			c2.203,1.803,4.006,4.109,5.411,6.913c1.4,2.809,2.302,5.712,2.706,8.718c0.197,0.601,0.348,1.154,0.451,1.652
			c0.099,0.503,0.15,1.053,0.15,1.654h17.134c7.012,0,12.625,0.45,16.833,1.352c4.208,0.902,7.712,3.359,10.521,7.365
			c0.799,1.202,1.4,2.855,1.804,4.959c0.399,2.105,0.451,4.209,0.15,6.313c-0.301,2.104-0.855,4.059-1.653,5.862
			c-0.803,1.804-1.804,3.108-3.006,3.907c-1.606,0.602-3.358,1.254-5.261,1.954c-1.907,0.704-3.659,1.052-5.26,1.052
			c-2.405,0.202-4.561,0.254-6.463,0.15c-1.907-0.098-4.058-0.15-6.462-0.15c-3.607,0-6.416,0.053-8.417,0.15
			c-2.005,0.104-4.41,0.052-7.214-0.15c0,2.607,0,4.26,0,4.961c0,0.703,0,1.352,0,1.953s0,1.503,0,2.705c0,1.203,0,3.509,0,6.914
			c1,0.803,2.301,2.404,3.908,4.81c1.602,2.405,3.203,4.41,4.81,6.012c1.602,1.606,3.306,3.358,5.11,5.261
			c1.804,1.906,3.706,3.959,5.711,6.162c1.399,1.404,2.602,2.705,3.607,3.907C915.131,235.273,916.131,236.377,917.136,237.378z
			 M861.526,383.467c-8.219,0-14.833-1.756-19.839-5.26c-5.012-3.51-7.515-7.566-7.515-12.176v-43.285
			c-0.404-4.404-0.404-8.914,0-13.525c0.399-4.209,2.053-7.613,4.96-10.221c2.902-2.602,6.66-3.908,11.272-3.908
			c1,0,2.804,0.053,5.411,0.15c2.602,0.104,4.405,0.352,5.411,0.752c2.602,0.803,4.659,2.006,6.162,3.607
			c1.503,1.605,2.654,3.457,3.457,5.561c0.799,2.104,1.301,4.311,1.503,6.613c0.197,2.307,0.399,4.561,0.602,6.764
			c0,0.803,0.047,2.658,0.15,5.561c0.098,2.906,0.197,6.012,0.3,9.318c0.099,3.307,0.197,6.363,0.301,9.168
			c0.099,2.809,0.249,4.51,0.451,5.109c0.601,0.203,2.254,0.451,4.96,0.752c2.705,0.301,7.764,0.451,15.18,0.451
			c6.411,0,10.371-0.1,11.874-0.301c1.503-0.197,2.353-0.301,2.555-0.301h98.294c2.603,0.803,4.706,1.654,6.313,2.555
			c1.602,0.902,3.104,2.105,4.509,3.607c1.4,1.504,2.302,3.256,2.706,5.26c1,7.615-0.301,13.527-3.908,17.736
			c-2.404,2.803-5.012,4.508-7.815,5.109c-2.809,0.602-4.312,0.902-4.509,0.902H861.526z M1014.229,235.875v27.354
			c-0.202,2.209-0.503,4.463-0.902,6.764c-0.403,2.307-1.202,4.561-2.404,6.764c-1.404,2.607-3.109,4.51-5.11,5.711
			c-3.208,2.207-6.515,3.307-9.92,3.307c-3.006,0-5.814-0.799-8.416-2.404c-2.006-1.203-3.607-2.705-4.81-4.51
			c-1.202-1.803-2.156-3.504-2.855-5.109c-0.705-1.602-1.254-3.705-1.653-6.313v-99.196c0-1,0.15-3.255,0.45-6.763
			c0.301-3.504,1.053-6.463,2.255-8.868c2.001-4.208,6.11-6.612,12.324-7.214c3.405-0.399,6.562-0.197,9.469,0.602
			c2.902,0.803,5.157,2.104,6.764,3.907c1.202,1.606,2.052,3.156,2.555,4.659c0.498,1.503,0.949,3.058,1.353,4.659
			c0.602,2.005,0.949,4.11,1.053,6.313c0.099,2.208,0.047,4.41-0.15,6.612v30.061c0.798,0,2.301,0.104,4.509,0.301
			c2.202,0.201,4.556,0.352,7.063,0.45c2.504,0.104,4.856,0.253,7.064,0.45c2.202,0.203,3.705,0.404,4.509,0.602
			c4.006,0.804,6.811,1.954,8.417,3.457c1.602,1.503,2.705,3.358,3.306,5.561c0.399,2.208,0.602,4.764,0.602,7.666
			c0,2.907-0.602,5.363-1.804,7.364c-2.404,4.011-6.012,6.313-10.821,6.913c-4.81,0.602-10.121,0.902-15.932,0.902H1014.229z"/>
	</g>
</g>
<circle fill="none" stroke="#0D4578" stroke-width="12" stroke-miterlimit="10" cx="923" cy="257.5" r="215"/>
<circle fill="none" stroke="#0D4578" stroke-width="12" stroke-miterlimit="10" cx="1397" cy="257.5" r="215"/>
<g>
	<g>
		<path fill="#0E4478" d="M1388.137,237.378c3.404,4.011,6.811,8.22,10.22,12.626c3.405,4.41,5.712,8.82,6.913,13.225
			c0.4,2.006,0.4,4.109,0,6.313c-0.403,2.209-1.502,4.109-3.306,5.711c-3.007,2.006-6.214,3.006-9.619,3.006
			c-3.81,0-7.468-0.9-10.972-2.705c-3.508-1.803-6.364-3.605-8.566-5.41c-3.41-3.006-6.516-6.059-9.318-9.168
			c-2.809-3.105-5.613-6.162-8.418-9.168c-2.207-2.404-4.611-4.811-7.213-7.215c-2.607-2.404-4.914-5.006-6.914-7.814
			l-29.759,32.764c-3.208,3.41-6.613,5.764-10.22,7.064c-3.607,1.307-7.018,1.953-10.221,1.953c-1.006,0-2.508-0.197-4.51-0.6
			c-3.809-1.002-6.415-2.805-7.814-5.412c-1.203-2.203-1.606-4.705-1.203-7.514c0.399-2.805,1.203-5.309,2.405-7.516
			c1.399-2.404,2.954-4.607,4.659-6.613c1.7-2,3.457-4.105,5.26-6.313c5.209-5.811,10.268-11.873,15.181-18.186
			c4.908-6.313,10.267-12.475,16.081-18.486v-16.533c-1.605,0.202-3.606,0.254-6.012,0.15c-2.404-0.098-5.312-0.15-8.717-0.15
			c-2.207,0-4.711,0.104-7.515,0.301c-2.81,0.202-5.562,0.104-8.267-0.301c-2.705-0.398-5.162-1.249-7.364-2.555
			c-2.208-1.301-3.907-3.457-5.11-6.463c-1.005-2.203-1.606-4.706-1.804-7.515c-0.202-2.804,0-5.411,0.602-7.815
			c0.601-2.805,2.151-4.758,4.659-5.861c2.504-1.1,4.856-1.851,7.064-2.255c2-0.399,3.804-0.601,5.41-0.601
			c0.602,0,1.202,0.051,1.803,0.15c0.602,0.103,1.203,0.15,1.805,0.15h24.348c0.399-4.608,1.353-8.967,2.855-13.076
			c1.504-4.105,4.457-6.961,8.867-8.567c3.406-1.202,6.563-1.503,9.469-0.901c2.903,0.602,5.458,1.803,7.666,3.607
			c2.203,1.803,4.006,4.109,5.41,6.913c1.4,2.809,2.302,5.712,2.705,8.718c0.197,0.601,0.348,1.154,0.451,1.652
			c0.099,0.503,0.15,1.053,0.15,1.654h17.134c7.013,0,12.625,0.45,16.833,1.352c4.209,0.902,7.713,3.359,10.521,7.365
			c0.799,1.202,1.399,2.855,1.803,4.959c0.4,2.105,0.451,4.209,0.15,6.313c-0.301,2.104-0.854,4.059-1.652,5.862
			c-0.804,1.804-1.805,3.108-3.006,3.907c-1.607,0.602-3.359,1.254-5.262,1.954c-1.906,0.704-3.658,1.052-5.26,1.052
			c-2.404,0.202-4.561,0.254-6.463,0.15c-1.906-0.098-4.058-0.15-6.463-0.15c-3.607,0-6.416,0.053-8.416,0.15
			c-2.006,0.104-4.41,0.052-7.215-0.15c0,2.607,0,4.26,0,4.961c0,0.703,0,1.352,0,1.953s0,1.503,0,2.705c0,1.203,0,3.509,0,6.914
			c1.001,0.803,2.302,2.404,3.908,4.81c1.602,2.405,3.203,4.41,4.81,6.012c1.602,1.606,3.306,3.358,5.11,5.261
			c1.803,1.906,3.705,3.959,5.711,6.162c1.399,1.404,2.602,2.705,3.607,3.907C1386.131,235.273,1387.131,236.377,1388.137,237.378z
			 M1332.526,383.467c-8.22,0-14.833-1.756-19.839-5.26c-5.012-3.51-7.516-7.566-7.516-12.176v-43.285
			c-0.403-4.404-0.403-8.914,0-13.525c0.4-4.209,2.053-7.613,4.961-10.221c2.902-2.602,6.66-3.908,11.271-3.908
			c1,0,2.805,0.053,5.411,0.15c2.602,0.104,4.405,0.352,5.411,0.752c2.602,0.803,4.658,2.006,6.162,3.607
			c1.502,1.605,2.653,3.457,3.456,5.561c0.799,2.104,1.302,4.311,1.503,6.613c0.197,2.307,0.399,4.561,0.602,6.764
			c0,0.803,0.047,2.658,0.15,5.561c0.098,2.906,0.197,6.012,0.301,9.318c0.098,3.307,0.197,6.363,0.301,9.168
			c0.098,2.809,0.248,4.51,0.45,5.109c0.601,0.203,2.255,0.451,4.96,0.752s7.764,0.451,15.18,0.451c6.411,0,10.371-0.1,11.873-0.301
			c1.504-0.197,2.354-0.301,2.556-0.301h98.294c2.603,0.803,4.706,1.654,6.313,2.555c1.602,0.902,3.104,2.105,4.509,3.607
			c1.4,1.504,2.302,3.256,2.706,5.26c1,7.615-0.301,13.527-3.908,17.736c-2.404,2.803-5.012,4.508-7.815,5.109
			c-2.809,0.602-4.312,0.902-4.509,0.902H1332.526z M1485.229,235.875v27.354c-0.202,2.209-0.503,4.463-0.902,6.764
			c-0.403,2.307-1.202,4.561-2.404,6.764c-1.404,2.607-3.109,4.51-5.11,5.711c-3.208,2.207-6.515,3.307-9.92,3.307
			c-3.006,0-5.814-0.799-8.416-2.404c-2.006-1.203-3.607-2.705-4.81-4.51c-1.202-1.803-2.156-3.504-2.855-5.109
			c-0.705-1.602-1.254-3.705-1.653-6.313v-99.196c0-1,0.15-3.255,0.45-6.763c0.301-3.504,1.053-6.463,2.255-8.868
			c2.001-4.208,6.11-6.612,12.324-7.214c3.405-0.399,6.562-0.197,9.469,0.602c2.902,0.803,5.157,2.104,6.764,3.907
			c1.202,1.606,2.052,3.156,2.555,4.659c0.498,1.503,0.949,3.058,1.353,4.659c0.602,2.005,0.949,4.11,1.053,6.313
			c0.099,2.208,0.047,4.41-0.15,6.612v30.061c0.798,0,2.301,0.104,4.509,0.301c2.202,0.201,4.556,0.352,7.063,0.45
			c2.504,0.104,4.856,0.253,7.064,0.45c2.202,0.203,3.705,0.404,4.509,0.602c4.006,0.804,6.811,1.954,8.417,3.457
			c1.602,1.503,2.705,3.358,3.306,5.561c0.399,2.208,0.602,4.764,0.602,7.666c0,2.907-0.602,5.363-1.804,7.364
			c-2.404,4.011-6.012,6.313-10.821,6.913c-4.81,0.602-10.121,0.902-15.932,0.902H1485.229z"/>
	</g>
</g>
<circle fill="#053657" cx="700" cy="450.5" r="21.5"/>
<circle fill="#053657" cx="1173" cy="451.5" r="21.5"/>
<circle fill="#053657" cx="1646" cy="451.5" r="21.5"/>
<g>
	<g>
		<circle fill="#0B477B" cx="1732" cy="87.5" r="21.5"/>
		<circle fill="#0B477B" cx="1732" cy="431.5" r="21.5"/>
		<rect x="1711" y="87" fill="#0B477B" width="42" height="344"/>
	</g>
</g>
<g>
	<g>
		<circle fill="#0B477B" cx="120" cy="107.5" r="21.5"/>
		<circle fill="#0B477B" cx="120" cy="451.5" r="21.5"/>
		<rect x="99" y="107" fill="#0B477B" width="42" height="344"/>
	</g>
</g>
<g>
	<g>
		<circle fill="#0B477B" cx="1818" cy="431.5" r="21.5"/>
		<circle fill="#0B477B" cx="1818" cy="87.5" r="21.5"/>
		<rect x="1797" y="89" fill="#0B477B" width="42" height="344"/>
	</g>
</g>
<ellipse fill="#0D4578" cx="119" cy="149.5" rx="64.5" ry="86"/>
</svg>
